<mxfile host="app.diagrams.net" agent="Mozilla/5.0 (Windows NT 10.0; Win64; x64) AppleWebKit/537.36 (KHTML, like Gecko) Chrome/131.0.0.0 Safari/537.36 OPR/116.0.0.0" version="26.1.0">
  <diagram name="Page-1" id="FhR7yXSTgjPDrinI72yU">
    <mxGraphModel dx="2013" dy="745" grid="1" gridSize="10" guides="1" tooltips="1" connect="1" arrows="1" fold="1" page="1" pageScale="1" pageWidth="827" pageHeight="1169" math="0" shadow="0">
      <root>
        <mxCell id="0" />
        <mxCell id="1" parent="0" />
        <mxCell id="VH0bWTQ8fn6q8dBTq8Dh-32" value="" style="ellipse;whiteSpace=wrap;html=1;" vertex="1" parent="1">
          <mxGeometry x="910" y="410" width="100" height="50" as="geometry" />
        </mxCell>
        <mxCell id="VH0bWTQ8fn6q8dBTq8Dh-1" value="A" style="rounded=0;whiteSpace=wrap;html=1;" vertex="1" parent="1">
          <mxGeometry x="190" y="300" width="120" height="60" as="geometry" />
        </mxCell>
        <mxCell id="VH0bWTQ8fn6q8dBTq8Dh-5" value="&lt;u&gt;B_id&lt;/u&gt;" style="ellipse;whiteSpace=wrap;html=1;" vertex="1" parent="1">
          <mxGeometry x="-10" y="415" width="80" height="40" as="geometry" />
        </mxCell>
        <mxCell id="VH0bWTQ8fn6q8dBTq8Dh-6" value="" style="endArrow=none;html=1;rounded=0;exitX=0;exitY=0.5;exitDx=0;exitDy=0;entryX=0.5;entryY=0;entryDx=0;entryDy=0;" edge="1" parent="1" source="VH0bWTQ8fn6q8dBTq8Dh-1" target="VH0bWTQ8fn6q8dBTq8Dh-5">
          <mxGeometry width="50" height="50" relative="1" as="geometry">
            <mxPoint x="260" y="290" as="sourcePoint" />
            <mxPoint x="350" y="230" as="targetPoint" />
          </mxGeometry>
        </mxCell>
        <mxCell id="VH0bWTQ8fn6q8dBTq8Dh-13" value="C" style="ellipse;whiteSpace=wrap;html=1;" vertex="1" parent="1">
          <mxGeometry x="100" y="415" width="80" height="40" as="geometry" />
        </mxCell>
        <mxCell id="VH0bWTQ8fn6q8dBTq8Dh-14" value="" style="endArrow=none;html=1;rounded=0;entryX=0.5;entryY=1;entryDx=0;entryDy=0;exitX=0.5;exitY=0;exitDx=0;exitDy=0;" edge="1" parent="1" source="VH0bWTQ8fn6q8dBTq8Dh-13" target="VH0bWTQ8fn6q8dBTq8Dh-1">
          <mxGeometry width="50" height="50" relative="1" as="geometry">
            <mxPoint x="390" y="470" as="sourcePoint" />
            <mxPoint x="440" y="420" as="targetPoint" />
          </mxGeometry>
        </mxCell>
        <mxCell id="VH0bWTQ8fn6q8dBTq8Dh-15" value="D" style="ellipse;whiteSpace=wrap;html=1;" vertex="1" parent="1">
          <mxGeometry x="210" y="415" width="80" height="40" as="geometry" />
        </mxCell>
        <mxCell id="VH0bWTQ8fn6q8dBTq8Dh-16" value="" style="endArrow=none;html=1;rounded=0;entryX=0.5;entryY=1;entryDx=0;entryDy=0;exitX=0.5;exitY=0;exitDx=0;exitDy=0;" edge="1" parent="1" source="VH0bWTQ8fn6q8dBTq8Dh-15" target="VH0bWTQ8fn6q8dBTq8Dh-1">
          <mxGeometry width="50" height="50" relative="1" as="geometry">
            <mxPoint x="390" y="470" as="sourcePoint" />
            <mxPoint x="440" y="420" as="targetPoint" />
          </mxGeometry>
        </mxCell>
        <mxCell id="VH0bWTQ8fn6q8dBTq8Dh-20" value="D1" style="ellipse;whiteSpace=wrap;html=1;" vertex="1" parent="1">
          <mxGeometry x="110" y="510" width="80" height="40" as="geometry" />
        </mxCell>
        <mxCell id="VH0bWTQ8fn6q8dBTq8Dh-21" value="D2" style="ellipse;whiteSpace=wrap;html=1;" vertex="1" parent="1">
          <mxGeometry x="210" y="510" width="80" height="40" as="geometry" />
        </mxCell>
        <mxCell id="VH0bWTQ8fn6q8dBTq8Dh-22" value="D3" style="ellipse;whiteSpace=wrap;html=1;" vertex="1" parent="1">
          <mxGeometry x="300" y="510" width="80" height="40" as="geometry" />
        </mxCell>
        <mxCell id="VH0bWTQ8fn6q8dBTq8Dh-23" value="" style="endArrow=none;html=1;rounded=0;entryX=0.5;entryY=1;entryDx=0;entryDy=0;exitX=0.5;exitY=0;exitDx=0;exitDy=0;" edge="1" parent="1" source="VH0bWTQ8fn6q8dBTq8Dh-20" target="VH0bWTQ8fn6q8dBTq8Dh-15">
          <mxGeometry width="50" height="50" relative="1" as="geometry">
            <mxPoint x="390" y="470" as="sourcePoint" />
            <mxPoint x="440" y="420" as="targetPoint" />
          </mxGeometry>
        </mxCell>
        <mxCell id="VH0bWTQ8fn6q8dBTq8Dh-24" value="" style="endArrow=none;html=1;rounded=0;exitX=0.5;exitY=0;exitDx=0;exitDy=0;entryX=0.5;entryY=1;entryDx=0;entryDy=0;" edge="1" parent="1" source="VH0bWTQ8fn6q8dBTq8Dh-21" target="VH0bWTQ8fn6q8dBTq8Dh-15">
          <mxGeometry width="50" height="50" relative="1" as="geometry">
            <mxPoint x="390" y="470" as="sourcePoint" />
            <mxPoint x="440" y="420" as="targetPoint" />
          </mxGeometry>
        </mxCell>
        <mxCell id="VH0bWTQ8fn6q8dBTq8Dh-25" value="" style="endArrow=none;html=1;rounded=0;entryX=0.5;entryY=1;entryDx=0;entryDy=0;exitX=0.5;exitY=0;exitDx=0;exitDy=0;" edge="1" parent="1" source="VH0bWTQ8fn6q8dBTq8Dh-22" target="VH0bWTQ8fn6q8dBTq8Dh-15">
          <mxGeometry width="50" height="50" relative="1" as="geometry">
            <mxPoint x="390" y="470" as="sourcePoint" />
            <mxPoint x="440" y="420" as="targetPoint" />
          </mxGeometry>
        </mxCell>
        <mxCell id="VH0bWTQ8fn6q8dBTq8Dh-26" value="E" style="rounded=0;whiteSpace=wrap;html=1;" vertex="1" parent="1">
          <mxGeometry x="760" y="300" width="120" height="60" as="geometry" />
        </mxCell>
        <mxCell id="VH0bWTQ8fn6q8dBTq8Dh-28" value="&lt;u&gt;F_id&lt;/u&gt;" style="ellipse;whiteSpace=wrap;html=1;" vertex="1" parent="1">
          <mxGeometry x="640" y="415" width="80" height="40" as="geometry" />
        </mxCell>
        <mxCell id="VH0bWTQ8fn6q8dBTq8Dh-29" value="H" style="ellipse;whiteSpace=wrap;html=1;" vertex="1" parent="1">
          <mxGeometry x="820" y="415" width="80" height="40" as="geometry" />
        </mxCell>
        <mxCell id="VH0bWTQ8fn6q8dBTq8Dh-30" value="G" style="ellipse;whiteSpace=wrap;html=1;" vertex="1" parent="1">
          <mxGeometry x="730" y="415" width="80" height="40" as="geometry" />
        </mxCell>
        <mxCell id="VH0bWTQ8fn6q8dBTq8Dh-31" value="I" style="ellipse;whiteSpace=wrap;html=1;" vertex="1" parent="1">
          <mxGeometry x="920" y="415" width="80" height="40" as="geometry" />
        </mxCell>
        <mxCell id="VH0bWTQ8fn6q8dBTq8Dh-33" value="" style="endArrow=none;html=1;rounded=0;entryX=0.5;entryY=1;entryDx=0;entryDy=0;" edge="1" parent="1" source="VH0bWTQ8fn6q8dBTq8Dh-30" target="VH0bWTQ8fn6q8dBTq8Dh-26">
          <mxGeometry width="50" height="50" relative="1" as="geometry">
            <mxPoint x="450" y="460" as="sourcePoint" />
            <mxPoint x="500" y="410" as="targetPoint" />
          </mxGeometry>
        </mxCell>
        <mxCell id="VH0bWTQ8fn6q8dBTq8Dh-34" value="" style="endArrow=none;html=1;rounded=0;entryX=0.5;entryY=1;entryDx=0;entryDy=0;exitX=0.5;exitY=0;exitDx=0;exitDy=0;" edge="1" parent="1" source="VH0bWTQ8fn6q8dBTq8Dh-28" target="VH0bWTQ8fn6q8dBTq8Dh-26">
          <mxGeometry width="50" height="50" relative="1" as="geometry">
            <mxPoint x="450" y="460" as="sourcePoint" />
            <mxPoint x="500" y="410" as="targetPoint" />
          </mxGeometry>
        </mxCell>
        <mxCell id="VH0bWTQ8fn6q8dBTq8Dh-35" value="" style="endArrow=none;html=1;rounded=0;entryX=0.5;entryY=1;entryDx=0;entryDy=0;exitX=0.5;exitY=0;exitDx=0;exitDy=0;" edge="1" parent="1" source="VH0bWTQ8fn6q8dBTq8Dh-29" target="VH0bWTQ8fn6q8dBTq8Dh-26">
          <mxGeometry width="50" height="50" relative="1" as="geometry">
            <mxPoint x="450" y="460" as="sourcePoint" />
            <mxPoint x="500" y="410" as="targetPoint" />
          </mxGeometry>
        </mxCell>
        <mxCell id="VH0bWTQ8fn6q8dBTq8Dh-36" value="" style="endArrow=none;html=1;rounded=0;entryX=0.5;entryY=1;entryDx=0;entryDy=0;exitX=0.5;exitY=0;exitDx=0;exitDy=0;" edge="1" parent="1" source="VH0bWTQ8fn6q8dBTq8Dh-31" target="VH0bWTQ8fn6q8dBTq8Dh-26">
          <mxGeometry width="50" height="50" relative="1" as="geometry">
            <mxPoint x="450" y="460" as="sourcePoint" />
            <mxPoint x="500" y="410" as="targetPoint" />
          </mxGeometry>
        </mxCell>
        <mxCell id="VH0bWTQ8fn6q8dBTq8Dh-37" value="" style="endArrow=classic;startArrow=classic;html=1;rounded=0;entryX=0;entryY=0.5;entryDx=0;entryDy=0;exitX=1;exitY=0.5;exitDx=0;exitDy=0;" edge="1" parent="1" source="VH0bWTQ8fn6q8dBTq8Dh-1" target="VH0bWTQ8fn6q8dBTq8Dh-26">
          <mxGeometry width="50" height="50" relative="1" as="geometry">
            <mxPoint x="390" y="460" as="sourcePoint" />
            <mxPoint x="440" y="410" as="targetPoint" />
          </mxGeometry>
        </mxCell>
        <mxCell id="VH0bWTQ8fn6q8dBTq8Dh-38" value="" style="endArrow=classic;html=1;rounded=0;exitX=1;exitY=0.5;exitDx=0;exitDy=0;" edge="1" parent="1" source="VH0bWTQ8fn6q8dBTq8Dh-39">
          <mxGeometry width="50" height="50" relative="1" as="geometry">
            <mxPoint x="390" y="460" as="sourcePoint" />
            <mxPoint x="750" y="330" as="targetPoint" />
          </mxGeometry>
        </mxCell>
        <mxCell id="VH0bWTQ8fn6q8dBTq8Dh-39" value="A-E" style="rhombus;whiteSpace=wrap;html=1;" vertex="1" parent="1">
          <mxGeometry x="460" y="290" width="80" height="80" as="geometry" />
        </mxCell>
        <mxCell id="VH0bWTQ8fn6q8dBTq8Dh-41" value="J" style="ellipse;whiteSpace=wrap;html=1;" vertex="1" parent="1">
          <mxGeometry x="400" y="415" width="80" height="40" as="geometry" />
        </mxCell>
        <mxCell id="VH0bWTQ8fn6q8dBTq8Dh-42" value="K" style="ellipse;whiteSpace=wrap;html=1;" vertex="1" parent="1">
          <mxGeometry x="510" y="415" width="80" height="40" as="geometry" />
        </mxCell>
        <mxCell id="VH0bWTQ8fn6q8dBTq8Dh-43" value="" style="endArrow=none;html=1;rounded=0;entryX=0.5;entryY=1;entryDx=0;entryDy=0;exitX=0.5;exitY=0;exitDx=0;exitDy=0;" edge="1" parent="1" source="VH0bWTQ8fn6q8dBTq8Dh-41" target="VH0bWTQ8fn6q8dBTq8Dh-39">
          <mxGeometry width="50" height="50" relative="1" as="geometry">
            <mxPoint x="390" y="460" as="sourcePoint" />
            <mxPoint x="440" y="410" as="targetPoint" />
          </mxGeometry>
        </mxCell>
        <mxCell id="VH0bWTQ8fn6q8dBTq8Dh-44" value="" style="endArrow=none;html=1;rounded=0;entryX=0.5;entryY=1;entryDx=0;entryDy=0;exitX=0.5;exitY=0;exitDx=0;exitDy=0;" edge="1" parent="1" source="VH0bWTQ8fn6q8dBTq8Dh-42" target="VH0bWTQ8fn6q8dBTq8Dh-39">
          <mxGeometry width="50" height="50" relative="1" as="geometry">
            <mxPoint x="390" y="460" as="sourcePoint" />
            <mxPoint x="480" y="380" as="targetPoint" />
          </mxGeometry>
        </mxCell>
      </root>
    </mxGraphModel>
  </diagram>
</mxfile>
